<svg xmlns="http://www.w3.org/2000/svg" width="1024" height="1024" viewBox="0 0 1024 1024"><defs>
 <linearGradient id="silk" x2="1" y2="1"><stop stop-color="#faf8ec"/><stop offset=".5" stop-color="#ede8d7"/><stop offset="1" stop-color="#f7f3e5"/></linearGradient>
 <linearGradient id="leaf" x2="1" y2="1"><stop stop-color="#799279"/><stop offset=".45" stop-color="#496c57"/><stop offset="1" stop-color="#263f38"/></linearGradient>
 <radialGradient id="petal"><stop stop-color="#ded4b7"/><stop offset=".35" stop-color="#eee9d7"/><stop offset=".8" stop-color="#fffdf4"/><stop offset="1" stop-color="#e8e4d3"/></radialGradient>
 <linearGradient id="wood"><stop stop-color="#514537"/><stop offset=".55" stop-color="#8a7859"/><stop offset="1" stop-color="#564836"/></linearGradient>
 <pattern id="weave" width="8" height="8" patternUnits="userSpaceOnUse"><path d="M0 1h8M1 0v8" stroke="#afa487" opacity=".13" stroke-width=".5"/></pattern>
 </defs><path d="M240 915Q319 763 424 654T531 444Q552 290 682 129" fill="none" stroke="url(#wood)" stroke-width="20" stroke-linecap="round"/><path d="M240 915Q319 763 424 654T531 444Q552 290 682 129" fill="none" stroke="#c0ac7d" opacity=".5" stroke-width="2.4"/><path d="M422 657Q364 539 283 446Q244 392 231 303" fill="none" stroke="url(#wood)" stroke-width="11" stroke-linecap="round"/><path d="M422 657Q364 539 283 446Q244 392 231 303" fill="none" stroke="#c0ac7d" opacity=".5" stroke-width="1.3199999999999998"/><path d="M489 551Q628 597 725 717T814 800" fill="none" stroke="url(#wood)" stroke-width="12" stroke-linecap="round"/><path d="M489 551Q628 597 725 717T814 800" fill="none" stroke="#c0ac7d" opacity=".5" stroke-width="1.44"/><path d="M546 334Q634 323 713 254T802 169" fill="none" stroke="url(#wood)" stroke-width="9" stroke-linecap="round"/><path d="M546 334Q634 323 713 254T802 169" fill="none" stroke="#c0ac7d" opacity=".5" stroke-width="1.08"/><path d="M322 771Q255 716 183 694" fill="none" stroke="url(#wood)" stroke-width="8" stroke-linecap="round"/><path d="M322 771Q255 716 183 694" fill="none" stroke="#c0ac7d" opacity=".5" stroke-width="0.96"/><path d="M544 444Q638 422 713 363" fill="none" stroke="url(#wood)" stroke-width="7" stroke-linecap="round"/><path d="M544 444Q638 422 713 363" fill="none" stroke="#c0ac7d" opacity=".5" stroke-width="0.84"/><path d="M537 414Q463 378 416 294" fill="none" stroke="url(#wood)" stroke-width="9" stroke-linecap="round"/><path d="M537 414Q463 378 416 294" fill="none" stroke="#c0ac7d" opacity=".5" stroke-width="1.08"/><path d="M255 877l14 3" stroke="#5d4e3d" stroke-width="2" opacity=".5"/><path d="M270 851l14 3" stroke="#5d4e3d" stroke-width="2" opacity=".5"/><path d="M285 825l14 3" stroke="#5d4e3d" stroke-width="2" opacity=".5"/><path d="M300 799l14 3" stroke="#5d4e3d" stroke-width="2" opacity=".5"/><path d="M315 773l14 3" stroke="#5d4e3d" stroke-width="2" opacity=".5"/><path d="M330 747l14 3" stroke="#5d4e3d" stroke-width="2" opacity=".5"/><path d="M345 721l14 3" stroke="#5d4e3d" stroke-width="2" opacity=".5"/><path d="M360 695l14 3" stroke="#5d4e3d" stroke-width="2" opacity=".5"/><path d="M375 669l14 3" stroke="#5d4e3d" stroke-width="2" opacity=".5"/><path d="M390 643l14 3" stroke="#5d4e3d" stroke-width="2" opacity=".5"/><path d="M405 617l14 3" stroke="#5d4e3d" stroke-width="2" opacity=".5"/><path d="M420 591l14 3" stroke="#5d4e3d" stroke-width="2" opacity=".5"/><path d="M435 565l14 3" stroke="#5d4e3d" stroke-width="2" opacity=".5"/><path d="M450 539l14 3" stroke="#5d4e3d" stroke-width="2" opacity=".5"/><path d="M465 513l14 3" stroke="#5d4e3d" stroke-width="2" opacity=".5"/><path d="M480 487l14 3" stroke="#5d4e3d" stroke-width="2" opacity=".5"/><path d="M495 461l14 3" stroke="#5d4e3d" stroke-width="2" opacity=".5"/></svg>