<svg xmlns="http://www.w3.org/2000/svg" width="1024" height="1024" viewBox="0 0 1024 1024"><defs>
 <linearGradient id="silk" x2="1" y2="1"><stop stop-color="#faf8ec"/><stop offset=".5" stop-color="#ede8d7"/><stop offset="1" stop-color="#f7f3e5"/></linearGradient>
 <linearGradient id="leaf" x2="1" y2="1"><stop stop-color="#799279"/><stop offset=".45" stop-color="#496c57"/><stop offset="1" stop-color="#263f38"/></linearGradient>
 <radialGradient id="petal"><stop stop-color="#ded4b7"/><stop offset=".35" stop-color="#eee9d7"/><stop offset=".8" stop-color="#fffdf4"/><stop offset="1" stop-color="#e8e4d3"/></radialGradient>
 <linearGradient id="wood"><stop stop-color="#514537"/><stop offset=".55" stop-color="#8a7859"/><stop offset="1" stop-color="#564836"/></linearGradient>
 <pattern id="weave" width="8" height="8" patternUnits="userSpaceOnUse"><path d="M0 1h8M1 0v8" stroke="#afa487" opacity=".13" stroke-width=".5"/></pattern>
 </defs><g transform="translate(431 337) rotate(-12) scale(1.22)"><g transform="rotate(216)"><path d="M0 7C-20-12-68-22-66-66C-65-106-26-120-5-94C23-121 64-99 61-60C60-25 23-9 0 7Z" fill="url(#petal)" stroke="#aaa489" stroke-width="1.3"/><path d="M-7.359999999999999 -7Q-44.16 -46 -36.8 -85.152" fill="none" stroke="#c8c2a7" stroke-width=".85" opacity=".72"/><path d="M-6.4399999999999995 -7Q-38.63999999999999 -46 -32.199999999999996 -84.508" fill="none" stroke="#e5dfc9" stroke-width=".85" opacity=".72"/><path d="M-5.52 -7Q-33.12 -46 -27.599999999999998 -83.864" fill="none" stroke="#e5dfc9" stroke-width=".85" opacity=".72"/><path d="M-4.6000000000000005 -7Q-27.599999999999998 -46 -23 -83.22" fill="none" stroke="#c8c2a7" stroke-width=".85" opacity=".72"/><path d="M-3.6799999999999997 -7Q-22.08 -46 -18.4 -82.576" fill="none" stroke="#e5dfc9" stroke-width=".85" opacity=".72"/><path d="M-2.76 -7Q-16.56 -46 -13.799999999999999 -81.932" fill="none" stroke="#e5dfc9" stroke-width=".85" opacity=".72"/><path d="M-1.8399999999999999 -7Q-11.04 -46 -9.2 -81.288" fill="none" stroke="#c8c2a7" stroke-width=".85" opacity=".72"/><path d="M-0.9199999999999999 -7Q-5.52 -46 -4.6 -80.644" fill="none" stroke="#e5dfc9" stroke-width=".85" opacity=".72"/><path d="M0 -7Q0 -46 0 -80" fill="none" stroke="#e5dfc9" stroke-width=".85" opacity=".72"/><path d="M0.9199999999999999 -7Q5.52 -46 4.6 -80.644" fill="none" stroke="#c8c2a7" stroke-width=".85" opacity=".72"/><path d="M1.8399999999999999 -7Q11.04 -46 9.2 -81.288" fill="none" stroke="#e5dfc9" stroke-width=".85" opacity=".72"/><path d="M2.76 -7Q16.56 -46 13.799999999999999 -81.932" fill="none" stroke="#e5dfc9" stroke-width=".85" opacity=".72"/><path d="M3.6799999999999997 -7Q22.08 -46 18.4 -82.576" fill="none" stroke="#c8c2a7" stroke-width=".85" opacity=".72"/><path d="M4.6000000000000005 -7Q27.599999999999998 -46 23 -83.22" fill="none" stroke="#e5dfc9" stroke-width=".85" opacity=".72"/><path d="M5.52 -7Q33.12 -46 27.599999999999998 -83.864" fill="none" stroke="#e5dfc9" stroke-width=".85" opacity=".72"/><path d="M6.4399999999999995 -7Q38.63999999999999 -46 32.199999999999996 -84.508" fill="none" stroke="#c8c2a7" stroke-width=".85" opacity=".72"/><path d="M7.359999999999999 -7Q44.16 -46 36.8 -85.152" fill="none" stroke="#e5dfc9" stroke-width=".85" opacity=".72"/></g><g transform="rotate(288)"><path d="M0 7C-20-12-68-22-66-66C-65-106-26-120-5-94C23-121 64-99 61-60C60-25 23-9 0 7Z" fill="url(#petal)" stroke="#aaa489" stroke-width="1.3"/><path d="M-7.359999999999999 -7Q-44.16 -46 -36.8 -85.152" fill="none" stroke="#c8c2a7" stroke-width=".85" opacity=".72"/><path d="M-6.4399999999999995 -7Q-38.63999999999999 -46 -32.199999999999996 -84.508" fill="none" stroke="#e5dfc9" stroke-width=".85" opacity=".72"/><path d="M-5.52 -7Q-33.12 -46 -27.599999999999998 -83.864" fill="none" stroke="#e5dfc9" stroke-width=".85" opacity=".72"/><path d="M-4.6000000000000005 -7Q-27.599999999999998 -46 -23 -83.22" fill="none" stroke="#c8c2a7" stroke-width=".85" opacity=".72"/><path d="M-3.6799999999999997 -7Q-22.08 -46 -18.4 -82.576" fill="none" stroke="#e5dfc9" stroke-width=".85" opacity=".72"/><path d="M-2.76 -7Q-16.56 -46 -13.799999999999999 -81.932" fill="none" stroke="#e5dfc9" stroke-width=".85" opacity=".72"/><path d="M-1.8399999999999999 -7Q-11.04 -46 -9.2 -81.288" fill="none" stroke="#c8c2a7" stroke-width=".85" opacity=".72"/><path d="M-0.9199999999999999 -7Q-5.52 -46 -4.6 -80.644" fill="none" stroke="#e5dfc9" stroke-width=".85" opacity=".72"/><path d="M0 -7Q0 -46 0 -80" fill="none" stroke="#e5dfc9" stroke-width=".85" opacity=".72"/><path d="M0.9199999999999999 -7Q5.52 -46 4.6 -80.644" fill="none" stroke="#c8c2a7" stroke-width=".85" opacity=".72"/><path d="M1.8399999999999999 -7Q11.04 -46 9.2 -81.288" fill="none" stroke="#e5dfc9" stroke-width=".85" opacity=".72"/><path d="M2.76 -7Q16.56 -46 13.799999999999999 -81.932" fill="none" stroke="#e5dfc9" stroke-width=".85" opacity=".72"/><path d="M3.6799999999999997 -7Q22.08 -46 18.4 -82.576" fill="none" stroke="#c8c2a7" stroke-width=".85" opacity=".72"/><path d="M4.6000000000000005 -7Q27.599999999999998 -46 23 -83.22" fill="none" stroke="#e5dfc9" stroke-width=".85" opacity=".72"/><path d="M5.52 -7Q33.12 -46 27.599999999999998 -83.864" fill="none" stroke="#e5dfc9" stroke-width=".85" opacity=".72"/><path d="M6.4399999999999995 -7Q38.63999999999999 -46 32.199999999999996 -84.508" fill="none" stroke="#c8c2a7" stroke-width=".85" opacity=".72"/><path d="M7.359999999999999 -7Q44.16 -46 36.8 -85.152" fill="none" stroke="#e5dfc9" stroke-width=".85" opacity=".72"/></g></g><g transform="translate(659 201) rotate(22) scale(0.86)"><g transform="rotate(216)"><path d="M0 7C-20-12-68-22-66-66C-65-106-26-120-5-94C23-121 64-99 61-60C60-25 23-9 0 7Z" fill="url(#petal)" stroke="#aaa489" stroke-width="1.3"/><path d="M-7.359999999999999 -7Q-44.16 -46 -36.8 -85.152" fill="none" stroke="#c8c2a7" stroke-width=".85" opacity=".72"/><path d="M-6.4399999999999995 -7Q-38.63999999999999 -46 -32.199999999999996 -84.508" fill="none" stroke="#e5dfc9" stroke-width=".85" opacity=".72"/><path d="M-5.52 -7Q-33.12 -46 -27.599999999999998 -83.864" fill="none" stroke="#e5dfc9" stroke-width=".85" opacity=".72"/><path d="M-4.6000000000000005 -7Q-27.599999999999998 -46 -23 -83.22" fill="none" stroke="#c8c2a7" stroke-width=".85" opacity=".72"/><path d="M-3.6799999999999997 -7Q-22.08 -46 -18.4 -82.576" fill="none" stroke="#e5dfc9" stroke-width=".85" opacity=".72"/><path d="M-2.76 -7Q-16.56 -46 -13.799999999999999 -81.932" fill="none" stroke="#e5dfc9" stroke-width=".85" opacity=".72"/><path d="M-1.8399999999999999 -7Q-11.04 -46 -9.2 -81.288" fill="none" stroke="#c8c2a7" stroke-width=".85" opacity=".72"/><path d="M-0.9199999999999999 -7Q-5.52 -46 -4.6 -80.644" fill="none" stroke="#e5dfc9" stroke-width=".85" opacity=".72"/><path d="M0 -7Q0 -46 0 -80" fill="none" stroke="#e5dfc9" stroke-width=".85" opacity=".72"/><path d="M0.9199999999999999 -7Q5.52 -46 4.6 -80.644" fill="none" stroke="#c8c2a7" stroke-width=".85" opacity=".72"/><path d="M1.8399999999999999 -7Q11.04 -46 9.2 -81.288" fill="none" stroke="#e5dfc9" stroke-width=".85" opacity=".72"/><path d="M2.76 -7Q16.56 -46 13.799999999999999 -81.932" fill="none" stroke="#e5dfc9" stroke-width=".85" opacity=".72"/><path d="M3.6799999999999997 -7Q22.08 -46 18.4 -82.576" fill="none" stroke="#c8c2a7" stroke-width=".85" opacity=".72"/><path d="M4.6000000000000005 -7Q27.599999999999998 -46 23 -83.22" fill="none" stroke="#e5dfc9" stroke-width=".85" opacity=".72"/><path d="M5.52 -7Q33.12 -46 27.599999999999998 -83.864" fill="none" stroke="#e5dfc9" stroke-width=".85" opacity=".72"/><path d="M6.4399999999999995 -7Q38.63999999999999 -46 32.199999999999996 -84.508" fill="none" stroke="#c8c2a7" stroke-width=".85" opacity=".72"/><path d="M7.359999999999999 -7Q44.16 -46 36.8 -85.152" fill="none" stroke="#e5dfc9" stroke-width=".85" opacity=".72"/></g><g transform="rotate(288)"><path d="M0 7C-20-12-68-22-66-66C-65-106-26-120-5-94C23-121 64-99 61-60C60-25 23-9 0 7Z" fill="url(#petal)" stroke="#aaa489" stroke-width="1.3"/><path d="M-7.359999999999999 -7Q-44.16 -46 -36.8 -85.152" fill="none" stroke="#c8c2a7" stroke-width=".85" opacity=".72"/><path d="M-6.4399999999999995 -7Q-38.63999999999999 -46 -32.199999999999996 -84.508" fill="none" stroke="#e5dfc9" stroke-width=".85" opacity=".72"/><path d="M-5.52 -7Q-33.12 -46 -27.599999999999998 -83.864" fill="none" stroke="#e5dfc9" stroke-width=".85" opacity=".72"/><path d="M-4.6000000000000005 -7Q-27.599999999999998 -46 -23 -83.22" fill="none" stroke="#c8c2a7" stroke-width=".85" opacity=".72"/><path d="M-3.6799999999999997 -7Q-22.08 -46 -18.4 -82.576" fill="none" stroke="#e5dfc9" stroke-width=".85" opacity=".72"/><path d="M-2.76 -7Q-16.56 -46 -13.799999999999999 -81.932" fill="none" stroke="#e5dfc9" stroke-width=".85" opacity=".72"/><path d="M-1.8399999999999999 -7Q-11.04 -46 -9.2 -81.288" fill="none" stroke="#c8c2a7" stroke-width=".85" opacity=".72"/><path d="M-0.9199999999999999 -7Q-5.52 -46 -4.6 -80.644" fill="none" stroke="#e5dfc9" stroke-width=".85" opacity=".72"/><path d="M0 -7Q0 -46 0 -80" fill="none" stroke="#e5dfc9" stroke-width=".85" opacity=".72"/><path d="M0.9199999999999999 -7Q5.52 -46 4.6 -80.644" fill="none" stroke="#c8c2a7" stroke-width=".85" opacity=".72"/><path d="M1.8399999999999999 -7Q11.04 -46 9.2 -81.288" fill="none" stroke="#e5dfc9" stroke-width=".85" opacity=".72"/><path d="M2.76 -7Q16.56 -46 13.799999999999999 -81.932" fill="none" stroke="#e5dfc9" stroke-width=".85" opacity=".72"/><path d="M3.6799999999999997 -7Q22.08 -46 18.4 -82.576" fill="none" stroke="#c8c2a7" stroke-width=".85" opacity=".72"/><path d="M4.6000000000000005 -7Q27.599999999999998 -46 23 -83.22" fill="none" stroke="#e5dfc9" stroke-width=".85" opacity=".72"/><path d="M5.52 -7Q33.12 -46 27.599999999999998 -83.864" fill="none" stroke="#e5dfc9" stroke-width=".85" opacity=".72"/><path d="M6.4399999999999995 -7Q38.63999999999999 -46 32.199999999999996 -84.508" fill="none" stroke="#c8c2a7" stroke-width=".85" opacity=".72"/><path d="M7.359999999999999 -7Q44.16 -46 36.8 -85.152" fill="none" stroke="#e5dfc9" stroke-width=".85" opacity=".72"/></g></g><g transform="translate(618 477) rotate(7) scale(1.1)"><g transform="rotate(216)"><path d="M0 7C-20-12-68-22-66-66C-65-106-26-120-5-94C23-121 64-99 61-60C60-25 23-9 0 7Z" fill="url(#petal)" stroke="#aaa489" stroke-width="1.3"/><path d="M-7.359999999999999 -7Q-44.16 -46 -36.8 -85.152" fill="none" stroke="#c8c2a7" stroke-width=".85" opacity=".72"/><path d="M-6.4399999999999995 -7Q-38.63999999999999 -46 -32.199999999999996 -84.508" fill="none" stroke="#e5dfc9" stroke-width=".85" opacity=".72"/><path d="M-5.52 -7Q-33.12 -46 -27.599999999999998 -83.864" fill="none" stroke="#e5dfc9" stroke-width=".85" opacity=".72"/><path d="M-4.6000000000000005 -7Q-27.599999999999998 -46 -23 -83.22" fill="none" stroke="#c8c2a7" stroke-width=".85" opacity=".72"/><path d="M-3.6799999999999997 -7Q-22.08 -46 -18.4 -82.576" fill="none" stroke="#e5dfc9" stroke-width=".85" opacity=".72"/><path d="M-2.76 -7Q-16.56 -46 -13.799999999999999 -81.932" fill="none" stroke="#e5dfc9" stroke-width=".85" opacity=".72"/><path d="M-1.8399999999999999 -7Q-11.04 -46 -9.2 -81.288" fill="none" stroke="#c8c2a7" stroke-width=".85" opacity=".72"/><path d="M-0.9199999999999999 -7Q-5.52 -46 -4.6 -80.644" fill="none" stroke="#e5dfc9" stroke-width=".85" opacity=".72"/><path d="M0 -7Q0 -46 0 -80" fill="none" stroke="#e5dfc9" stroke-width=".85" opacity=".72"/><path d="M0.9199999999999999 -7Q5.52 -46 4.6 -80.644" fill="none" stroke="#c8c2a7" stroke-width=".85" opacity=".72"/><path d="M1.8399999999999999 -7Q11.04 -46 9.2 -81.288" fill="none" stroke="#e5dfc9" stroke-width=".85" opacity=".72"/><path d="M2.76 -7Q16.56 -46 13.799999999999999 -81.932" fill="none" stroke="#e5dfc9" stroke-width=".85" opacity=".72"/><path d="M3.6799999999999997 -7Q22.08 -46 18.4 -82.576" fill="none" stroke="#c8c2a7" stroke-width=".85" opacity=".72"/><path d="M4.6000000000000005 -7Q27.599999999999998 -46 23 -83.22" fill="none" stroke="#e5dfc9" stroke-width=".85" opacity=".72"/><path d="M5.52 -7Q33.12 -46 27.599999999999998 -83.864" fill="none" stroke="#e5dfc9" stroke-width=".85" opacity=".72"/><path d="M6.4399999999999995 -7Q38.63999999999999 -46 32.199999999999996 -84.508" fill="none" stroke="#c8c2a7" stroke-width=".85" opacity=".72"/><path d="M7.359999999999999 -7Q44.16 -46 36.8 -85.152" fill="none" stroke="#e5dfc9" stroke-width=".85" opacity=".72"/></g><g transform="rotate(288)"><path d="M0 7C-20-12-68-22-66-66C-65-106-26-120-5-94C23-121 64-99 61-60C60-25 23-9 0 7Z" fill="url(#petal)" stroke="#aaa489" stroke-width="1.3"/><path d="M-7.359999999999999 -7Q-44.16 -46 -36.8 -85.152" fill="none" stroke="#c8c2a7" stroke-width=".85" opacity=".72"/><path d="M-6.4399999999999995 -7Q-38.63999999999999 -46 -32.199999999999996 -84.508" fill="none" stroke="#e5dfc9" stroke-width=".85" opacity=".72"/><path d="M-5.52 -7Q-33.12 -46 -27.599999999999998 -83.864" fill="none" stroke="#e5dfc9" stroke-width=".85" opacity=".72"/><path d="M-4.6000000000000005 -7Q-27.599999999999998 -46 -23 -83.22" fill="none" stroke="#c8c2a7" stroke-width=".85" opacity=".72"/><path d="M-3.6799999999999997 -7Q-22.08 -46 -18.4 -82.576" fill="none" stroke="#e5dfc9" stroke-width=".85" opacity=".72"/><path d="M-2.76 -7Q-16.56 -46 -13.799999999999999 -81.932" fill="none" stroke="#e5dfc9" stroke-width=".85" opacity=".72"/><path d="M-1.8399999999999999 -7Q-11.04 -46 -9.2 -81.288" fill="none" stroke="#c8c2a7" stroke-width=".85" opacity=".72"/><path d="M-0.9199999999999999 -7Q-5.52 -46 -4.6 -80.644" fill="none" stroke="#e5dfc9" stroke-width=".85" opacity=".72"/><path d="M0 -7Q0 -46 0 -80" fill="none" stroke="#e5dfc9" stroke-width=".85" opacity=".72"/><path d="M0.9199999999999999 -7Q5.52 -46 4.6 -80.644" fill="none" stroke="#c8c2a7" stroke-width=".85" opacity=".72"/><path d="M1.8399999999999999 -7Q11.04 -46 9.2 -81.288" fill="none" stroke="#e5dfc9" stroke-width=".85" opacity=".72"/><path d="M2.76 -7Q16.56 -46 13.799999999999999 -81.932" fill="none" stroke="#e5dfc9" stroke-width=".85" opacity=".72"/><path d="M3.6799999999999997 -7Q22.08 -46 18.4 -82.576" fill="none" stroke="#c8c2a7" stroke-width=".85" opacity=".72"/><path d="M4.6000000000000005 -7Q27.599999999999998 -46 23 -83.22" fill="none" stroke="#e5dfc9" stroke-width=".85" opacity=".72"/><path d="M5.52 -7Q33.12 -46 27.599999999999998 -83.864" fill="none" stroke="#e5dfc9" stroke-width=".85" opacity=".72"/><path d="M6.4399999999999995 -7Q38.63999999999999 -46 32.199999999999996 -84.508" fill="none" stroke="#c8c2a7" stroke-width=".85" opacity=".72"/><path d="M7.359999999999999 -7Q44.16 -46 36.8 -85.152" fill="none" stroke="#e5dfc9" stroke-width=".85" opacity=".72"/></g></g><g transform="translate(350 602) rotate(-31) scale(0.86)"><g transform="rotate(216)"><path d="M0 7C-20-12-68-22-66-66C-65-106-26-120-5-94C23-121 64-99 61-60C60-25 23-9 0 7Z" fill="url(#petal)" stroke="#aaa489" stroke-width="1.3"/><path d="M-7.359999999999999 -7Q-44.16 -46 -36.8 -85.152" fill="none" stroke="#c8c2a7" stroke-width=".85" opacity=".72"/><path d="M-6.4399999999999995 -7Q-38.63999999999999 -46 -32.199999999999996 -84.508" fill="none" stroke="#e5dfc9" stroke-width=".85" opacity=".72"/><path d="M-5.52 -7Q-33.12 -46 -27.599999999999998 -83.864" fill="none" stroke="#e5dfc9" stroke-width=".85" opacity=".72"/><path d="M-4.6000000000000005 -7Q-27.599999999999998 -46 -23 -83.22" fill="none" stroke="#c8c2a7" stroke-width=".85" opacity=".72"/><path d="M-3.6799999999999997 -7Q-22.08 -46 -18.4 -82.576" fill="none" stroke="#e5dfc9" stroke-width=".85" opacity=".72"/><path d="M-2.76 -7Q-16.56 -46 -13.799999999999999 -81.932" fill="none" stroke="#e5dfc9" stroke-width=".85" opacity=".72"/><path d="M-1.8399999999999999 -7Q-11.04 -46 -9.2 -81.288" fill="none" stroke="#c8c2a7" stroke-width=".85" opacity=".72"/><path d="M-0.9199999999999999 -7Q-5.52 -46 -4.6 -80.644" fill="none" stroke="#e5dfc9" stroke-width=".85" opacity=".72"/><path d="M0 -7Q0 -46 0 -80" fill="none" stroke="#e5dfc9" stroke-width=".85" opacity=".72"/><path d="M0.9199999999999999 -7Q5.52 -46 4.6 -80.644" fill="none" stroke="#c8c2a7" stroke-width=".85" opacity=".72"/><path d="M1.8399999999999999 -7Q11.04 -46 9.2 -81.288" fill="none" stroke="#e5dfc9" stroke-width=".85" opacity=".72"/><path d="M2.76 -7Q16.56 -46 13.799999999999999 -81.932" fill="none" stroke="#e5dfc9" stroke-width=".85" opacity=".72"/><path d="M3.6799999999999997 -7Q22.08 -46 18.4 -82.576" fill="none" stroke="#c8c2a7" stroke-width=".85" opacity=".72"/><path d="M4.6000000000000005 -7Q27.599999999999998 -46 23 -83.22" fill="none" stroke="#e5dfc9" stroke-width=".85" opacity=".72"/><path d="M5.52 -7Q33.12 -46 27.599999999999998 -83.864" fill="none" stroke="#e5dfc9" stroke-width=".85" opacity=".72"/><path d="M6.4399999999999995 -7Q38.63999999999999 -46 32.199999999999996 -84.508" fill="none" stroke="#c8c2a7" stroke-width=".85" opacity=".72"/><path d="M7.359999999999999 -7Q44.16 -46 36.8 -85.152" fill="none" stroke="#e5dfc9" stroke-width=".85" opacity=".72"/></g><g transform="rotate(288)"><path d="M0 7C-20-12-68-22-66-66C-65-106-26-120-5-94C23-121 64-99 61-60C60-25 23-9 0 7Z" fill="url(#petal)" stroke="#aaa489" stroke-width="1.3"/><path d="M-7.359999999999999 -7Q-44.16 -46 -36.8 -85.152" fill="none" stroke="#c8c2a7" stroke-width=".85" opacity=".72"/><path d="M-6.4399999999999995 -7Q-38.63999999999999 -46 -32.199999999999996 -84.508" fill="none" stroke="#e5dfc9" stroke-width=".85" opacity=".72"/><path d="M-5.52 -7Q-33.12 -46 -27.599999999999998 -83.864" fill="none" stroke="#e5dfc9" stroke-width=".85" opacity=".72"/><path d="M-4.6000000000000005 -7Q-27.599999999999998 -46 -23 -83.22" fill="none" stroke="#c8c2a7" stroke-width=".85" opacity=".72"/><path d="M-3.6799999999999997 -7Q-22.08 -46 -18.4 -82.576" fill="none" stroke="#e5dfc9" stroke-width=".85" opacity=".72"/><path d="M-2.76 -7Q-16.56 -46 -13.799999999999999 -81.932" fill="none" stroke="#e5dfc9" stroke-width=".85" opacity=".72"/><path d="M-1.8399999999999999 -7Q-11.04 -46 -9.2 -81.288" fill="none" stroke="#c8c2a7" stroke-width=".85" opacity=".72"/><path d="M-0.9199999999999999 -7Q-5.52 -46 -4.6 -80.644" fill="none" stroke="#e5dfc9" stroke-width=".85" opacity=".72"/><path d="M0 -7Q0 -46 0 -80" fill="none" stroke="#e5dfc9" stroke-width=".85" opacity=".72"/><path d="M0.9199999999999999 -7Q5.52 -46 4.6 -80.644" fill="none" stroke="#c8c2a7" stroke-width=".85" opacity=".72"/><path d="M1.8399999999999999 -7Q11.04 -46 9.2 -81.288" fill="none" stroke="#e5dfc9" stroke-width=".85" opacity=".72"/><path d="M2.76 -7Q16.56 -46 13.799999999999999 -81.932" fill="none" stroke="#e5dfc9" stroke-width=".85" opacity=".72"/><path d="M3.6799999999999997 -7Q22.08 -46 18.4 -82.576" fill="none" stroke="#c8c2a7" stroke-width=".85" opacity=".72"/><path d="M4.6000000000000005 -7Q27.599999999999998 -46 23 -83.22" fill="none" stroke="#e5dfc9" stroke-width=".85" opacity=".72"/><path d="M5.52 -7Q33.12 -46 27.599999999999998 -83.864" fill="none" stroke="#e5dfc9" stroke-width=".85" opacity=".72"/><path d="M6.4399999999999995 -7Q38.63999999999999 -46 32.199999999999996 -84.508" fill="none" stroke="#c8c2a7" stroke-width=".85" opacity=".72"/><path d="M7.359999999999999 -7Q44.16 -46 36.8 -85.152" fill="none" stroke="#e5dfc9" stroke-width=".85" opacity=".72"/></g></g><g transform="translate(700 722) rotate(17) scale(0.72)"><g transform="rotate(216)"><path d="M0 7C-20-12-68-22-66-66C-65-106-26-120-5-94C23-121 64-99 61-60C60-25 23-9 0 7Z" fill="url(#petal)" stroke="#aaa489" stroke-width="1.3"/><path d="M-7.359999999999999 -7Q-44.16 -46 -36.8 -85.152" fill="none" stroke="#c8c2a7" stroke-width=".85" opacity=".72"/><path d="M-6.4399999999999995 -7Q-38.63999999999999 -46 -32.199999999999996 -84.508" fill="none" stroke="#e5dfc9" stroke-width=".85" opacity=".72"/><path d="M-5.52 -7Q-33.12 -46 -27.599999999999998 -83.864" fill="none" stroke="#e5dfc9" stroke-width=".85" opacity=".72"/><path d="M-4.6000000000000005 -7Q-27.599999999999998 -46 -23 -83.22" fill="none" stroke="#c8c2a7" stroke-width=".85" opacity=".72"/><path d="M-3.6799999999999997 -7Q-22.08 -46 -18.4 -82.576" fill="none" stroke="#e5dfc9" stroke-width=".85" opacity=".72"/><path d="M-2.76 -7Q-16.56 -46 -13.799999999999999 -81.932" fill="none" stroke="#e5dfc9" stroke-width=".85" opacity=".72"/><path d="M-1.8399999999999999 -7Q-11.04 -46 -9.2 -81.288" fill="none" stroke="#c8c2a7" stroke-width=".85" opacity=".72"/><path d="M-0.9199999999999999 -7Q-5.52 -46 -4.6 -80.644" fill="none" stroke="#e5dfc9" stroke-width=".85" opacity=".72"/><path d="M0 -7Q0 -46 0 -80" fill="none" stroke="#e5dfc9" stroke-width=".85" opacity=".72"/><path d="M0.9199999999999999 -7Q5.52 -46 4.6 -80.644" fill="none" stroke="#c8c2a7" stroke-width=".85" opacity=".72"/><path d="M1.8399999999999999 -7Q11.04 -46 9.2 -81.288" fill="none" stroke="#e5dfc9" stroke-width=".85" opacity=".72"/><path d="M2.76 -7Q16.56 -46 13.799999999999999 -81.932" fill="none" stroke="#e5dfc9" stroke-width=".85" opacity=".72"/><path d="M3.6799999999999997 -7Q22.08 -46 18.4 -82.576" fill="none" stroke="#c8c2a7" stroke-width=".85" opacity=".72"/><path d="M4.6000000000000005 -7Q27.599999999999998 -46 23 -83.22" fill="none" stroke="#e5dfc9" stroke-width=".85" opacity=".72"/><path d="M5.52 -7Q33.12 -46 27.599999999999998 -83.864" fill="none" stroke="#e5dfc9" stroke-width=".85" opacity=".72"/><path d="M6.4399999999999995 -7Q38.63999999999999 -46 32.199999999999996 -84.508" fill="none" stroke="#c8c2a7" stroke-width=".85" opacity=".72"/><path d="M7.359999999999999 -7Q44.16 -46 36.8 -85.152" fill="none" stroke="#e5dfc9" stroke-width=".85" opacity=".72"/></g><g transform="rotate(288)"><path d="M0 7C-20-12-68-22-66-66C-65-106-26-120-5-94C23-121 64-99 61-60C60-25 23-9 0 7Z" fill="url(#petal)" stroke="#aaa489" stroke-width="1.3"/><path d="M-7.359999999999999 -7Q-44.16 -46 -36.8 -85.152" fill="none" stroke="#c8c2a7" stroke-width=".85" opacity=".72"/><path d="M-6.4399999999999995 -7Q-38.63999999999999 -46 -32.199999999999996 -84.508" fill="none" stroke="#e5dfc9" stroke-width=".85" opacity=".72"/><path d="M-5.52 -7Q-33.12 -46 -27.599999999999998 -83.864" fill="none" stroke="#e5dfc9" stroke-width=".85" opacity=".72"/><path d="M-4.6000000000000005 -7Q-27.599999999999998 -46 -23 -83.22" fill="none" stroke="#c8c2a7" stroke-width=".85" opacity=".72"/><path d="M-3.6799999999999997 -7Q-22.08 -46 -18.4 -82.576" fill="none" stroke="#e5dfc9" stroke-width=".85" opacity=".72"/><path d="M-2.76 -7Q-16.56 -46 -13.799999999999999 -81.932" fill="none" stroke="#e5dfc9" stroke-width=".85" opacity=".72"/><path d="M-1.8399999999999999 -7Q-11.04 -46 -9.2 -81.288" fill="none" stroke="#c8c2a7" stroke-width=".85" opacity=".72"/><path d="M-0.9199999999999999 -7Q-5.52 -46 -4.6 -80.644" fill="none" stroke="#e5dfc9" stroke-width=".85" opacity=".72"/><path d="M0 -7Q0 -46 0 -80" fill="none" stroke="#e5dfc9" stroke-width=".85" opacity=".72"/><path d="M0.9199999999999999 -7Q5.52 -46 4.6 -80.644" fill="none" stroke="#c8c2a7" stroke-width=".85" opacity=".72"/><path d="M1.8399999999999999 -7Q11.04 -46 9.2 -81.288" fill="none" stroke="#e5dfc9" stroke-width=".85" opacity=".72"/><path d="M2.76 -7Q16.56 -46 13.799999999999999 -81.932" fill="none" stroke="#e5dfc9" stroke-width=".85" opacity=".72"/><path d="M3.6799999999999997 -7Q22.08 -46 18.4 -82.576" fill="none" stroke="#c8c2a7" stroke-width=".85" opacity=".72"/><path d="M4.6000000000000005 -7Q27.599999999999998 -46 23 -83.22" fill="none" stroke="#e5dfc9" stroke-width=".85" opacity=".72"/><path d="M5.52 -7Q33.12 -46 27.599999999999998 -83.864" fill="none" stroke="#e5dfc9" stroke-width=".85" opacity=".72"/><path d="M6.4399999999999995 -7Q38.63999999999999 -46 32.199999999999996 -84.508" fill="none" stroke="#c8c2a7" stroke-width=".85" opacity=".72"/><path d="M7.359999999999999 -7Q44.16 -46 36.8 -85.152" fill="none" stroke="#e5dfc9" stroke-width=".85" opacity=".72"/></g></g><g transform="translate(252 332) rotate(0) scale(0.56)"><g transform="rotate(216)"><path d="M0 7C-20-12-68-22-66-66C-65-106-26-120-5-94C23-121 64-99 61-60C60-25 23-9 0 7Z" fill="url(#petal)" stroke="#aaa489" stroke-width="1.3"/><path d="M-7.359999999999999 -7Q-44.16 -46 -36.8 -85.152" fill="none" stroke="#c8c2a7" stroke-width=".85" opacity=".72"/><path d="M-6.4399999999999995 -7Q-38.63999999999999 -46 -32.199999999999996 -84.508" fill="none" stroke="#e5dfc9" stroke-width=".85" opacity=".72"/><path d="M-5.52 -7Q-33.12 -46 -27.599999999999998 -83.864" fill="none" stroke="#e5dfc9" stroke-width=".85" opacity=".72"/><path d="M-4.6000000000000005 -7Q-27.599999999999998 -46 -23 -83.22" fill="none" stroke="#c8c2a7" stroke-width=".85" opacity=".72"/><path d="M-3.6799999999999997 -7Q-22.08 -46 -18.4 -82.576" fill="none" stroke="#e5dfc9" stroke-width=".85" opacity=".72"/><path d="M-2.76 -7Q-16.56 -46 -13.799999999999999 -81.932" fill="none" stroke="#e5dfc9" stroke-width=".85" opacity=".72"/><path d="M-1.8399999999999999 -7Q-11.04 -46 -9.2 -81.288" fill="none" stroke="#c8c2a7" stroke-width=".85" opacity=".72"/><path d="M-0.9199999999999999 -7Q-5.52 -46 -4.6 -80.644" fill="none" stroke="#e5dfc9" stroke-width=".85" opacity=".72"/><path d="M0 -7Q0 -46 0 -80" fill="none" stroke="#e5dfc9" stroke-width=".85" opacity=".72"/><path d="M0.9199999999999999 -7Q5.52 -46 4.6 -80.644" fill="none" stroke="#c8c2a7" stroke-width=".85" opacity=".72"/><path d="M1.8399999999999999 -7Q11.04 -46 9.2 -81.288" fill="none" stroke="#e5dfc9" stroke-width=".85" opacity=".72"/><path d="M2.76 -7Q16.56 -46 13.799999999999999 -81.932" fill="none" stroke="#e5dfc9" stroke-width=".85" opacity=".72"/><path d="M3.6799999999999997 -7Q22.08 -46 18.4 -82.576" fill="none" stroke="#c8c2a7" stroke-width=".85" opacity=".72"/><path d="M4.6000000000000005 -7Q27.599999999999998 -46 23 -83.22" fill="none" stroke="#e5dfc9" stroke-width=".85" opacity=".72"/><path d="M5.52 -7Q33.12 -46 27.599999999999998 -83.864" fill="none" stroke="#e5dfc9" stroke-width=".85" opacity=".72"/><path d="M6.4399999999999995 -7Q38.63999999999999 -46 32.199999999999996 -84.508" fill="none" stroke="#c8c2a7" stroke-width=".85" opacity=".72"/><path d="M7.359999999999999 -7Q44.16 -46 36.8 -85.152" fill="none" stroke="#e5dfc9" stroke-width=".85" opacity=".72"/></g><g transform="rotate(288)"><path d="M0 7C-20-12-68-22-66-66C-65-106-26-120-5-94C23-121 64-99 61-60C60-25 23-9 0 7Z" fill="url(#petal)" stroke="#aaa489" stroke-width="1.3"/><path d="M-7.359999999999999 -7Q-44.16 -46 -36.8 -85.152" fill="none" stroke="#c8c2a7" stroke-width=".85" opacity=".72"/><path d="M-6.4399999999999995 -7Q-38.63999999999999 -46 -32.199999999999996 -84.508" fill="none" stroke="#e5dfc9" stroke-width=".85" opacity=".72"/><path d="M-5.52 -7Q-33.12 -46 -27.599999999999998 -83.864" fill="none" stroke="#e5dfc9" stroke-width=".85" opacity=".72"/><path d="M-4.6000000000000005 -7Q-27.599999999999998 -46 -23 -83.22" fill="none" stroke="#c8c2a7" stroke-width=".85" opacity=".72"/><path d="M-3.6799999999999997 -7Q-22.08 -46 -18.4 -82.576" fill="none" stroke="#e5dfc9" stroke-width=".85" opacity=".72"/><path d="M-2.76 -7Q-16.56 -46 -13.799999999999999 -81.932" fill="none" stroke="#e5dfc9" stroke-width=".85" opacity=".72"/><path d="M-1.8399999999999999 -7Q-11.04 -46 -9.2 -81.288" fill="none" stroke="#c8c2a7" stroke-width=".85" opacity=".72"/><path d="M-0.9199999999999999 -7Q-5.52 -46 -4.6 -80.644" fill="none" stroke="#e5dfc9" stroke-width=".85" opacity=".72"/><path d="M0 -7Q0 -46 0 -80" fill="none" stroke="#e5dfc9" stroke-width=".85" opacity=".72"/><path d="M0.9199999999999999 -7Q5.52 -46 4.6 -80.644" fill="none" stroke="#c8c2a7" stroke-width=".85" opacity=".72"/><path d="M1.8399999999999999 -7Q11.04 -46 9.2 -81.288" fill="none" stroke="#e5dfc9" stroke-width=".85" opacity=".72"/><path d="M2.76 -7Q16.56 -46 13.799999999999999 -81.932" fill="none" stroke="#e5dfc9" stroke-width=".85" opacity=".72"/><path d="M3.6799999999999997 -7Q22.08 -46 18.4 -82.576" fill="none" stroke="#c8c2a7" stroke-width=".85" opacity=".72"/><path d="M4.6000000000000005 -7Q27.599999999999998 -46 23 -83.22" fill="none" stroke="#e5dfc9" stroke-width=".85" opacity=".72"/><path d="M5.52 -7Q33.12 -46 27.599999999999998 -83.864" fill="none" stroke="#e5dfc9" stroke-width=".85" opacity=".72"/><path d="M6.4399999999999995 -7Q38.63999999999999 -46 32.199999999999996 -84.508" fill="none" stroke="#c8c2a7" stroke-width=".85" opacity=".72"/><path d="M7.359999999999999 -7Q44.16 -46 36.8 -85.152" fill="none" stroke="#e5dfc9" stroke-width=".85" opacity=".72"/></g></g><g transform="translate(491 703) rotate(45) scale(0.53)"><g transform="rotate(216)"><path d="M0 7C-20-12-68-22-66-66C-65-106-26-120-5-94C23-121 64-99 61-60C60-25 23-9 0 7Z" fill="url(#petal)" stroke="#aaa489" stroke-width="1.3"/><path d="M-7.359999999999999 -7Q-44.16 -46 -36.8 -85.152" fill="none" stroke="#c8c2a7" stroke-width=".85" opacity=".72"/><path d="M-6.4399999999999995 -7Q-38.63999999999999 -46 -32.199999999999996 -84.508" fill="none" stroke="#e5dfc9" stroke-width=".85" opacity=".72"/><path d="M-5.52 -7Q-33.12 -46 -27.599999999999998 -83.864" fill="none" stroke="#e5dfc9" stroke-width=".85" opacity=".72"/><path d="M-4.6000000000000005 -7Q-27.599999999999998 -46 -23 -83.22" fill="none" stroke="#c8c2a7" stroke-width=".85" opacity=".72"/><path d="M-3.6799999999999997 -7Q-22.08 -46 -18.4 -82.576" fill="none" stroke="#e5dfc9" stroke-width=".85" opacity=".72"/><path d="M-2.76 -7Q-16.56 -46 -13.799999999999999 -81.932" fill="none" stroke="#e5dfc9" stroke-width=".85" opacity=".72"/><path d="M-1.8399999999999999 -7Q-11.04 -46 -9.2 -81.288" fill="none" stroke="#c8c2a7" stroke-width=".85" opacity=".72"/><path d="M-0.9199999999999999 -7Q-5.52 -46 -4.6 -80.644" fill="none" stroke="#e5dfc9" stroke-width=".85" opacity=".72"/><path d="M0 -7Q0 -46 0 -80" fill="none" stroke="#e5dfc9" stroke-width=".85" opacity=".72"/><path d="M0.9199999999999999 -7Q5.52 -46 4.6 -80.644" fill="none" stroke="#c8c2a7" stroke-width=".85" opacity=".72"/><path d="M1.8399999999999999 -7Q11.04 -46 9.2 -81.288" fill="none" stroke="#e5dfc9" stroke-width=".85" opacity=".72"/><path d="M2.76 -7Q16.56 -46 13.799999999999999 -81.932" fill="none" stroke="#e5dfc9" stroke-width=".85" opacity=".72"/><path d="M3.6799999999999997 -7Q22.08 -46 18.4 -82.576" fill="none" stroke="#c8c2a7" stroke-width=".85" opacity=".72"/><path d="M4.6000000000000005 -7Q27.599999999999998 -46 23 -83.22" fill="none" stroke="#e5dfc9" stroke-width=".85" opacity=".72"/><path d="M5.52 -7Q33.12 -46 27.599999999999998 -83.864" fill="none" stroke="#e5dfc9" stroke-width=".85" opacity=".72"/><path d="M6.4399999999999995 -7Q38.63999999999999 -46 32.199999999999996 -84.508" fill="none" stroke="#c8c2a7" stroke-width=".85" opacity=".72"/><path d="M7.359999999999999 -7Q44.16 -46 36.8 -85.152" fill="none" stroke="#e5dfc9" stroke-width=".85" opacity=".72"/></g><g transform="rotate(288)"><path d="M0 7C-20-12-68-22-66-66C-65-106-26-120-5-94C23-121 64-99 61-60C60-25 23-9 0 7Z" fill="url(#petal)" stroke="#aaa489" stroke-width="1.3"/><path d="M-7.359999999999999 -7Q-44.16 -46 -36.8 -85.152" fill="none" stroke="#c8c2a7" stroke-width=".85" opacity=".72"/><path d="M-6.4399999999999995 -7Q-38.63999999999999 -46 -32.199999999999996 -84.508" fill="none" stroke="#e5dfc9" stroke-width=".85" opacity=".72"/><path d="M-5.52 -7Q-33.12 -46 -27.599999999999998 -83.864" fill="none" stroke="#e5dfc9" stroke-width=".85" opacity=".72"/><path d="M-4.6000000000000005 -7Q-27.599999999999998 -46 -23 -83.22" fill="none" stroke="#c8c2a7" stroke-width=".85" opacity=".72"/><path d="M-3.6799999999999997 -7Q-22.08 -46 -18.4 -82.576" fill="none" stroke="#e5dfc9" stroke-width=".85" opacity=".72"/><path d="M-2.76 -7Q-16.56 -46 -13.799999999999999 -81.932" fill="none" stroke="#e5dfc9" stroke-width=".85" opacity=".72"/><path d="M-1.8399999999999999 -7Q-11.04 -46 -9.2 -81.288" fill="none" stroke="#c8c2a7" stroke-width=".85" opacity=".72"/><path d="M-0.9199999999999999 -7Q-5.52 -46 -4.6 -80.644" fill="none" stroke="#e5dfc9" stroke-width=".85" opacity=".72"/><path d="M0 -7Q0 -46 0 -80" fill="none" stroke="#e5dfc9" stroke-width=".85" opacity=".72"/><path d="M0.9199999999999999 -7Q5.52 -46 4.6 -80.644" fill="none" stroke="#c8c2a7" stroke-width=".85" opacity=".72"/><path d="M1.8399999999999999 -7Q11.04 -46 9.2 -81.288" fill="none" stroke="#e5dfc9" stroke-width=".85" opacity=".72"/><path d="M2.76 -7Q16.56 -46 13.799999999999999 -81.932" fill="none" stroke="#e5dfc9" stroke-width=".85" opacity=".72"/><path d="M3.6799999999999997 -7Q22.08 -46 18.4 -82.576" fill="none" stroke="#c8c2a7" stroke-width=".85" opacity=".72"/><path d="M4.6000000000000005 -7Q27.599999999999998 -46 23 -83.22" fill="none" stroke="#e5dfc9" stroke-width=".85" opacity=".72"/><path d="M5.52 -7Q33.12 -46 27.599999999999998 -83.864" fill="none" stroke="#e5dfc9" stroke-width=".85" opacity=".72"/><path d="M6.4399999999999995 -7Q38.63999999999999 -46 32.199999999999996 -84.508" fill="none" stroke="#c8c2a7" stroke-width=".85" opacity=".72"/><path d="M7.359999999999999 -7Q44.16 -46 36.8 -85.152" fill="none" stroke="#e5dfc9" stroke-width=".85" opacity=".72"/></g></g></svg>